# xmcd
#
# Track frame offsets:
#	150
#	1862
#	2162
#	14164
#	27231
#	38093
#	50890
#	60952
#	72209
#	83336
#	94993
#	106080
#	115647
#	125424
#	137101
#	150048
#	158790
#	169687
#	180899
#	192921
#	202303
#	212150
#	223632
#	236414
#	246511
#	258113
#	268900
#	279917
#	290054
#	302061
#	321448
#	335805
#	347807
#
# Disc length: 4792 seconds
#
# Revision: 1
# Processed by: cddbd v1.5.2PL0 Copyright (c) Steve Scherf et al.
# Submitted via: audiograbber 1.83.01
#
DISCID=d912b621
DTITLE=Various Artist - Rare Sounds Extreme Oldies
DYEAR=1900
DGENRE=
TTITLE0=Blank - Blank Track 1
TTITLE1=Blank - Blank Track  2
TTITLE2=Eddie Floyd - I've Never Found A Girl
TTITLE3=Eddie Floyd - Big Bird
TTITLE4=Dominoes - Have Mercy Baby
TTITLE5=Checkers - Dont Stop Dan
TTITLE6=Checkers - White Cliffs Of Dover
TTITLE7=Superiors - Dont Say Goodbye
TTITLE8=Chanters - My My Darling
TTITLE9=Chanters - At My Door
TTITLE10=El Venos - My Heart Beats Faster
TTITLE11=El Venos - Geraldine
TTITLE12=Versatones - Bila
TTITLE13=Ike and Tina Turner - A Fool In Love
TTITLE14=Quails - Quit Pushin
TTITLE15=Highlighters - Flang Dang Do
TTITLE16=Cardinals - Come Back My Love
TTITLE17=Wynonie Harris - Lovin Machine
TTITLE18=Wynonie Harris - Blood Shot Eyes
TTITLE19=Guytones - Ooh Bop Sha Boo
TTITLE20=Champion Jack Dupree - Let The Door Bell Ring
TTITLE21=Mellows - Be Mine
TTITLE22=Penguins - Baby Lets Make Some Love
TTITLE23=Penguins - Promises Promises Promises
TTITLE24=Sticks McGhee - Six To Eight
TTITLE25=Fabulaires - While Walking
TTITLE26=Velours - Can I Walk You Home
TTITLE27=Lenny O Henry - Across The Street
TTITLE28=Four Seasons - Dont Sweat It Baby (1959)
TTITLE29=Juke Jumpers - Lets Get Loose
TTITLE30=Drifters - Gonna Move Across The River
TTITLE31=Dell Vikings - Come Go With Me (New Version)
TTITLE32=Bill Doggett - Honky Tonk (Pt 2)
EXTD=
EXTT0=
EXTT1=
EXTT2=
EXTT3=
EXTT4=
EXTT5=
EXTT6=
EXTT7=
EXTT8=
EXTT9=
EXTT10=
EXTT11=
EXTT12=
EXTT13=
EXTT14=
EXTT15=
EXTT16=
EXTT17=
EXTT18=
EXTT19=
EXTT20=
EXTT21=
EXTT22=
EXTT23=
EXTT24=
EXTT25=
EXTT26=
EXTT27=
EXTT28=
EXTT29=
EXTT30=
EXTT31=
EXTT32=
PLAYORDER=
